<svg version="1.2" xmlns="http://www.w3.org/2000/svg" viewBox="0 0 131 116" width="131" height="116"><defs><clipPath clipPathUnits="userSpaceOnUse" id="cp1"><path d="m12.57 5.57h105.86v105.86h-105.86z"/></clipPath><clipPath clipPathUnits="userSpaceOnUse" id="cp2"><path d="m65.5 5.57c-29.23 0-52.93 23.7-52.93 52.93 0 29.23 23.7 52.93 52.93 52.93 29.23 0 52.93-23.7 52.93-52.93 0-29.23-23.7-52.93-52.93-52.93z"/></clipPath></defs><style>.a{fill:#fff}.b{fill:#e6e6dd}.c{fill:#463f3a}.d{fill:#292929}</style><path class="a" d="m-159.5-166.5h450v450h-450z"/><path class="a" d="m-159.5-166.5h450v450h-450z"/><g clip-path="url(#cp1)"><g clip-path="url(#cp2)"><path class="b" d="m12.6 5.6h105.8v105.8h-105.8z"/></g></g><path fill-rule="evenodd" class="c" d="m9.6 66.9q-4-4.3-4-10.6 0-6.4 4-10.7 4-4.4 10.1-4.4 5.7 0 9.3 3.5v-2.7h9.8v28.5h-9.7v-3.3h-0.1q-3.6 4.1-9.3 4.1-6.1 0-10.1-4.4zm8.3-15.5q-1.9 1.9-1.9 4.9 0 2.9 1.8 4.8 1.8 1.8 4.8 1.8 2.9 0 4.8-1.9 1.8-1.9 1.8-4.7 0-3-1.9-4.9-1.9-1.9-4.7-1.9-2.8 0-4.7 1.9z"/><path class="c" d="m49.5 42v13.5q0 4.3 1.3 6 1.3 1.8 4.3 1.8 3.1 0 4.3-1.8 1.3-1.7 1.3-6v-13.5h9.8v15.9q0 7.1-3.7 10.3-3.6 3.1-11.7 3.1-8 0-11.7-3.1-3.7-3.2-3.7-10.3v-15.9z"/><path class="c" d="m71.4 70.5v-28.5h9.8v4.1h0.1q0.1-0.2 0.4-0.5 0.2-0.4 1.1-1.2 0.8-0.8 1.7-1.5 1-0.7 2.5-1.2 1.5-0.5 3-0.5 1.6 0 3.2 0.4 1.6 0.5 2.3 0.9l0.7 0.5-4.1 8.3q-1.8-1.6-5.1-1.6-1.7 0-3 0.8-1.3 0.8-1.8 1.9-0.5 1.1-0.8 1.9-0.2 0.8-0.2 1.2v15z"/><path fill-rule="evenodd" class="c" d="m95.7 66.9q-3.9-4.3-3.9-10.6 0-6.4 3.9-10.7 4-4.4 10.2-4.4 5.6 0 9.3 3.5v-2.7h9.8v28.5h-9.7v-3.3h-0.1q-3.7 4.1-9.3 4.1-6.2 0-10.2-4.4zm8.4-15.5q-1.9 1.9-1.9 4.9 0 2.9 1.8 4.8 1.8 1.8 4.8 1.8 2.9 0 4.8-1.9 1.8-1.9 1.8-4.7 0-3-1.9-4.9-1.9-1.9-4.7-1.9-2.8 0-4.7 1.9z"/><path fill-rule="evenodd" class="d" d="m11.2 78.2q0.7 0 1.3 0.4 0.6 0.3 0.9 1 0.3 0.6 0.3 1.4 0 0.8-0.3 1.4-0.3 0.6-0.9 1-0.6 0.3-1.2 0.3-0.6 0-1-0.2-0.5-0.2-0.8-0.6v2.3q0 0.2-0.1 0.3-0.1 0.2-0.4 0.2-0.2 0-0.3-0.1-0.1-0.2-0.1-0.4v-6.4q0-0.2 0.1-0.4 0.1-0.1 0.3-0.1 0.3 0 0.4 0.1 0.1 0.2 0.1 0.4v0.3q0.3-0.4 0.7-0.6 0.5-0.3 1-0.3zm-0.1 4.6q0.5 0 0.9-0.2 0.3-0.2 0.6-0.7 0.2-0.4 0.2-0.9 0-0.6-0.2-1-0.3-0.4-0.6-0.6-0.4-0.3-0.9-0.3-0.5 0-0.8 0.3-0.4 0.2-0.6 0.6-0.2 0.4-0.2 1 0 0.5 0.2 0.9 0.2 0.5 0.6 0.7 0.3 0.2 0.8 0.2z"/><path class="d" d="m24.1 78.2q1.8 0 1.8 2.2v2.8q0 0.2-0.1 0.3-0.2 0.1-0.4 0.1-0.2 0-0.3-0.1-0.1-0.1-0.1-0.3v-2.8q0-1.3-1.2-1.3-0.6 0-1 0.4-0.4 0.4-0.4 0.9v2.8q0 0.2-0.1 0.3-0.1 0.1-0.4 0.1-0.2 0-0.3-0.1-0.1-0.1-0.1-0.3v-6.6q0-0.2 0.1-0.4 0.1-0.1 0.3-0.1 0.3 0 0.4 0.1 0.1 0.2 0.1 0.4v2.6q0.3-0.4 0.7-0.7 0.5-0.3 1-0.3z"/><path fill-rule="evenodd" class="d" d="m39.1 81q0 0.8-0.4 1.4-0.3 0.6-1 1-0.6 0.4-1.3 0.4-0.8 0-1.4-0.4-0.6-0.4-1-1-0.3-0.6-0.3-1.4 0-0.8 0.3-1.5 0.4-0.6 1-1 0.6-0.3 1.4-0.3 0.7 0 1.3 0.3 0.7 0.4 1 1 0.4 0.7 0.4 1.5zm-1 0q0-0.6-0.2-1-0.2-0.4-0.6-0.7-0.4-0.2-0.9-0.2-0.5 0-0.9 0.2-0.4 0.3-0.6 0.7-0.2 0.4-0.2 1 0 0.5 0.2 0.9 0.2 0.5 0.6 0.7 0.4 0.3 0.9 0.3 0.5 0 0.9-0.3 0.4-0.2 0.6-0.7 0.2-0.4 0.2-0.9z"/><path class="d" d="m48.3 79.3v3q0 0.5 0.4 0.5 0.1 0 0.3 0 0.1-0.1 0.1-0.1 0.2 0 0.3 0.2 0.1 0.1 0.1 0.2 0 0.2-0.3 0.4-0.2 0.1-0.5 0.1-0.4 0-0.7 0-0.2-0.1-0.5-0.4-0.2-0.3-0.2-0.9v-3h-0.6q-0.2 0-0.3-0.2-0.1-0.1-0.1-0.3 0-0.2 0.1-0.3 0.1-0.1 0.3-0.1h0.6v-0.9q0-0.2 0.2-0.3 0.1-0.2 0.3-0.2 0.2 0 0.4 0.2 0.1 0.1 0.1 0.3v0.9h0.8q0.2 0 0.4 0.1 0.1 0.1 0.1 0.3 0 0.2-0.1 0.3-0.2 0.2-0.4 0.2z"/><path fill-rule="evenodd" class="d" d="m62.4 81q0 0.8-0.3 1.4-0.4 0.6-1 1-0.6 0.4-1.4 0.4-0.7 0-1.3-0.4-0.6-0.4-1-1-0.4-0.6-0.4-1.4 0-0.8 0.4-1.5 0.4-0.6 1-1 0.6-0.3 1.3-0.3 0.8 0 1.4 0.3 0.6 0.4 1 1 0.3 0.7 0.3 1.5zm-0.9 0q0-0.6-0.3-1-0.2-0.4-0.6-0.7-0.4-0.2-0.9-0.2-0.4 0-0.8 0.2-0.4 0.3-0.7 0.7-0.2 0.4-0.2 1 0 0.5 0.2 0.9 0.3 0.5 0.7 0.7 0.4 0.3 0.8 0.3 0.5 0 0.9-0.3 0.4-0.2 0.6-0.7 0.3-0.4 0.3-0.9z"/><path fill-rule="evenodd" class="d" d="m72.9 78.2q0.7 0 1.2 0.3 0.6 0.4 0.9 1 0.3 0.7 0.3 1.5 0 0.8-0.3 1.4-0.3 0.6-0.9 1-0.5 0.4-1.2 0.4-0.5 0-1-0.3-0.4-0.2-0.7-0.6v0.3q0 0.2-0.2 0.4-0.1 0.1-0.3 0.1-0.2 0-0.4-0.1-0.1-0.2-0.1-0.4v-6.6q0-0.2 0.1-0.4 0.2-0.1 0.4-0.1 0.2 0 0.3 0.1 0.2 0.2 0.2 0.4v2.5q0.2-0.4 0.7-0.7 0.4-0.2 1-0.2zm-0.1 4.7q0.4 0 0.8-0.3 0.4-0.2 0.6-0.7 0.2-0.4 0.2-0.9 0-0.6-0.2-1-0.2-0.4-0.6-0.7-0.4-0.2-0.8-0.2-0.5 0-0.9 0.2-0.4 0.3-0.6 0.7-0.2 0.4-0.2 1 0 0.5 0.2 0.9 0.2 0.5 0.6 0.7 0.4 0.3 0.9 0.3z"/><path fill-rule="evenodd" class="d" d="m88.2 81q0 0.8-0.4 1.4-0.3 0.6-1 1-0.6 0.4-1.3 0.4-0.8 0-1.4-0.4-0.6-0.4-1-1-0.3-0.6-0.3-1.4 0-0.8 0.3-1.5 0.4-0.6 1-1 0.6-0.3 1.4-0.3 0.7 0 1.3 0.3 0.7 0.4 1 1 0.4 0.7 0.4 1.5zm-1 0q0-0.6-0.2-1-0.3-0.4-0.6-0.7-0.4-0.2-0.9-0.2-0.5 0-0.9 0.2-0.4 0.3-0.6 0.7-0.2 0.4-0.2 1 0 0.5 0.2 0.9 0.2 0.5 0.6 0.7 0.4 0.3 0.9 0.3 0.5 0 0.9-0.3 0.3-0.2 0.6-0.7 0.2-0.4 0.2-0.9z"/><path fill-rule="evenodd" class="d" d="m101 81q0 0.8-0.4 1.4-0.3 0.6-0.9 1-0.6 0.4-1.4 0.4-0.7 0-1.4-0.4-0.6-0.4-0.9-1-0.4-0.6-0.4-1.4 0-0.8 0.4-1.5 0.3-0.6 0.9-1 0.7-0.3 1.4-0.3 0.8 0 1.4 0.3 0.6 0.4 0.9 1 0.4 0.7 0.4 1.5zm-1 0q0-0.6-0.2-1-0.2-0.4-0.6-0.7-0.4-0.2-0.9-0.2-0.5 0-0.9 0.2-0.4 0.3-0.6 0.7-0.2 0.4-0.2 1 0 0.5 0.2 0.9 0.2 0.5 0.6 0.7 0.4 0.3 0.9 0.3 0.5 0 0.9-0.3 0.4-0.2 0.6-0.7 0.2-0.4 0.2-0.9z"/><path class="d" d="m110.2 79.3v3q0 0.5 0.5 0.5 0 0 0.2 0 0.1-0.1 0.2-0.1 0.1 0 0.2 0.2 0.1 0.1 0.1 0.2 0 0.2-0.3 0.4-0.2 0.1-0.5 0.1-0.4 0-0.6 0-0.3-0.1-0.5-0.4-0.3-0.3-0.3-0.9v-3h-0.6q-0.1 0-0.3-0.2-0.1-0.1-0.1-0.3 0-0.2 0.1-0.3 0.2-0.1 0.3-0.1h0.6v-0.9q0-0.2 0.2-0.3 0.1-0.2 0.3-0.2 0.2 0 0.4 0.2 0.1 0.1 0.1 0.3v0.9h0.9q0.2 0 0.3 0.1 0.1 0.1 0.1 0.3 0 0.2-0.1 0.3-0.1 0.2-0.3 0.2z"/><path class="d" d="m122 78.2q1.7 0 1.7 2.2v2.8q0 0.2-0.1 0.3-0.1 0.1-0.4 0.1-0.2 0-0.3-0.1-0.1-0.1-0.1-0.3v-2.8q0-1.3-1.1-1.3-0.7 0-1.1 0.4-0.4 0.4-0.4 0.9v2.8q0 0.2-0.1 0.3-0.1 0.1-0.3 0.1-0.3 0-0.4-0.1-0.1-0.1-0.1-0.3v-6.6q0-0.2 0.1-0.4 0.2-0.1 0.4-0.1 0.2 0 0.3 0.1 0.1 0.2 0.1 0.4v2.6q0.3-0.4 0.8-0.7 0.4-0.3 1-0.3z"/></svg>